<svg xmlns="http://www.w3.org/2000/svg" viewBox="0 0 2844 872" role="img" aria-label="Beauty &amp; Cruor"> <g class="bc-leaf" fill="var(--logo-leaf, #7AC943)" transform="translate(0.000000,872.000000) scale(0.100000,-0.100000)"> <path d="M9005 8288 c-16 -6 -39 -19 -50 -28 -11 -11 -45 -21 -79 -26 -47 -5 -82 -20 -162 -65 -56 -33 -105 -59 -110 -59 -4 0 -33 -22 -63 -48 -31 -27 -70 -56 -86 -65 -29 -14 -172 -157 -205 -203 -92 -130 -156 -237 -167 -279 -7 -27 -19 -66 -27 -85 -8 -19 -28 -82 -45 -139 -36 -121 -43 -263 -16 -328 8 -19 15 -44 15 -54 0 -19 46 -49 74 -49 14 0 46 47 46 68 0 5 -10 12 -21 15 -20 5 -21 10 -17 114 4 96 7 114 35 168 17 33 34 85 38 115 8 57 41 126 82 171 24 27 48 66 78 127 21 44 151 169 238 229 38 26 87 63 109 80 21 18 58 38 81 44 23 6 49 17 57 24 8 7 29 17 45 20 17 4 66 24 110 43 l80 36 250 0 c211 -1 257 -4 295 -18 25 -10 79 -29 120 -42 41 -14 84 -31 95 -38 11 -7 37 -19 58 -25 21 -7 50 -23 65 -35 25 -22 54 -40 121 -75 14 -8 42 -28 61 -45 19 -17 56 -45 82 -61 26 -17 50 -39 54 -50 4 -11 32 -47 63 -81 58 -63 168 -213 178 -242 3 -9 13 -35 23 -57 74 -159 89 -199 95 -246 4 -30 15 -70 25 -89 10 -19 25 -73 35 -119 9 -47 23 -94 31 -106 18 -27 23 -83 36 -380 15 -345 15 -568 0 -855 -13 -248 -26 -327 -73 -458 -26 -74 -25 -117 6 -154 31 -37 32 -54 3 -69 -13 -6 -42 -30 -65 -52 l-43 -41 0 -101 c0 -98 -1 -101 -34 -148 -24 -34 -36 -63 -41 -105 -4 -31 -18 -82 -32 -112 -14 -30 -34 -80 -45 -110 -12 -30 -24 -59 -28 -65 -4 -5 -11 -21 -15 -35 -10 -37 -84 -188 -95 -195 -5 -3 -14 -25 -21 -48 -6 -23 -17 -49 -24 -57 -7 -8 -27 -43 -44 -77 -17 -34 -35 -64 -40 -67 -5 -4 -13 -21 -17 -39 -3 -17 -20 -48 -35 -67 -16 -19 -29 -39 -29 -45 0 -5 -14 -28 -30 -49 -17 -22 -30 -45 -30 -52 0 -8 -13 -28 -28 -46 -15 -18 -34 -43 -42 -55 -53 -78 -107 -152 -129 -179 -14 -17 -44 -55 -66 -84 -22 -29 -50 -62 -61 -74 -12 -11 -37 -41 -56 -66 -19 -25 -74 -87 -123 -139 -50 -51 -95 -102 -100 -112 -15 -26 -230 -223 -284 -259 -40 -27 -52 -30 -127 -30 -46 0 -132 6 -191 14 -195 25 -305 36 -523 51 -118 8 -239 19 -269 26 -30 6 -115 17 -190 24 -75 7 -183 25 -240 39 -57 14 -135 31 -174 37 -38 6 -94 19 -125 30 -30 10 -71 19 -91 19 -46 0 -155 77 -274 194 -91 88 -128 110 -164 93 -28 -13 -29 -22 -3 -45 26 -22 64 -98 55 -112 -11 -18 -79 -10 -135 16 -75 35 -189 79 -225 88 -16 4 -37 14 -45 21 -8 7 -42 24 -75 38 -33 14 -78 35 -100 46 -21 12 -47 21 -56 21 -9 0 -28 9 -42 20 -56 44 -128 89 -161 100 -18 6 -42 20 -52 31 -11 12 -52 39 -92 61 -40 22 -90 54 -111 72 -21 17 -57 42 -80 56 -24 14 -62 41 -86 61 -23 20 -58 45 -76 57 -19 11 -51 42 -73 67 -21 26 -52 55 -68 65 -33 20 -225 227 -273 294 -16 23 -47 59 -68 79 -20 21 -43 53 -51 72 -8 19 -37 64 -65 100 -27 37 -55 83 -62 103 -7 20 -22 50 -35 65 -13 16 -24 34 -24 40 0 7 -14 39 -30 72 -16 33 -30 68 -30 79 0 10 -10 35 -22 55 -33 51 -77 184 -92 271 -7 41 -17 84 -23 95 -6 11 -19 61 -29 110 -28 132 -25 606 3 745 11 53 25 105 31 115 5 11 13 52 17 90 4 39 15 88 25 110 10 22 21 55 25 73 4 19 19 48 35 65 16 19 31 50 35 76 5 29 24 68 55 111 27 37 56 83 65 101 15 28 60 80 227 263 10 11 18 23 18 28 0 4 18 19 40 33 23 14 57 41 78 61 20 19 66 51 102 71 35 20 83 51 106 68 23 18 59 36 79 39 33 6 173 74 201 97 7 5 47 16 90 24 44 8 95 19 114 25 84 25 588 55 619 36 5 -3 44 -11 87 -16 44 -6 108 -19 144 -30 36 -10 81 -23 100 -28 19 -6 85 -31 145 -57 61 -26 119 -49 130 -52 11 -4 32 -16 47 -29 15 -12 56 -39 90 -60 35 -21 88 -58 118 -82 30 -25 74 -54 97 -65 24 -12 45 -28 48 -36 6 -19 59 -76 141 -151 33 -30 68 -73 78 -95 10 -22 31 -56 46 -75 15 -19 35 -50 45 -69 18 -36 52 -70 71 -71 6 0 18 8 26 18 13 14 13 23 4 47 -16 43 -94 172 -133 222 -18 23 -33 44 -33 48 0 15 -63 86 -150 172 -4 4 -23 24 -42 43 -130 133 -350 310 -385 310 -6 0 -17 8 -24 17 -8 9 -42 29 -76 44 -34 16 -64 33 -67 38 -4 5 -25 12 -49 16 -23 4 -59 18 -79 31 -20 13 -57 28 -81 34 -24 5 -64 18 -89 29 -25 11 -72 22 -104 26 -33 4 -97 16 -143 27 -74 18 -107 19 -280 15 -123 -3 -224 -10 -271 -20 -41 -9 -106 -20 -145 -25 -74 -11 -237 -60 -295 -91 -19 -10 -56 -21 -82 -25 -26 -4 -57 -15 -70 -25 -26 -21 -102 -64 -169 -97 -25 -12 -59 -33 -75 -46 -16 -13 -49 -37 -74 -53 -25 -16 -55 -39 -67 -50 -12 -11 -49 -45 -83 -75 -77 -68 -208 -202 -229 -234 -9 -13 -34 -50 -56 -81 -44 -64 -51 -76 -90 -155 -16 -30 -39 -67 -52 -81 -25 -27 -55 -97 -80 -188 -8 -30 -25 -76 -38 -101 -13 -25 -29 -75 -35 -111 -7 -35 -20 -89 -30 -119 -9 -30 -23 -107 -29 -170 -7 -63 -19 -155 -28 -205 -17 -99 -17 -100 22 -473 15 -141 31 -255 39 -271 8 -15 20 -56 26 -91 6 -36 25 -95 41 -132 16 -36 29 -75 29 -85 0 -10 8 -34 19 -53 10 -19 26 -62 35 -95 10 -33 35 -88 57 -123 49 -78 59 -117 31 -126 -25 -8 -66 7 -111 43 -20 16 -52 32 -71 36 -19 4 -42 13 -50 21 -8 7 -35 17 -60 23 -29 6 -54 20 -70 38 -14 16 -46 42 -73 59 -38 23 -50 38 -63 77 -9 26 -24 52 -34 57 -24 13 -76 96 -90 147 -7 23 -32 63 -55 90 -23 26 -52 68 -64 93 -11 25 -46 77 -76 115 -30 39 -55 75 -55 80 0 6 -18 29 -41 50 -23 22 -52 57 -66 79 -34 52 -270 284 -313 306 -19 11 -57 37 -85 59 -67 53 -319 179 -375 187 -25 4 -70 19 -101 35 -30 15 -83 32 -117 39 -34 6 -77 17 -95 25 -19 8 -65 17 -103 21 -38 4 -95 18 -128 31 -35 14 -88 26 -130 30 -39 2 -91 13 -116 23 -25 10 -91 24 -147 31 -91 11 -105 10 -127 -4 -35 -24 -39 -58 -34 -305 5 -209 6 -219 32 -282 15 -36 34 -94 41 -130 7 -36 18 -76 24 -90 5 -14 17 -51 26 -82 9 -35 23 -62 35 -68 11 -6 22 -26 26 -48 6 -35 81 -163 104 -177 6 -3 17 -23 25 -43 14 -34 42 -66 156 -181 121 -121 282 -251 331 -266 12 -4 35 -16 49 -26 65 -46 162 -88 217 -94 31 -3 82 -17 113 -30 52 -23 107 -34 274 -56 163 -21 201 -21 375 0 203 25 212 27 264 53 21 11 68 24 105 30 88 14 99 21 112 74 l12 45 83 -2 c73 -1 88 -5 112 -26 15 -14 43 -35 64 -48 20 -13 39 -29 43 -35 3 -5 24 -10 45 -10 28 0 42 -5 49 -19 6 -10 31 -29 56 -41 25 -12 47 -25 50 -30 3 -5 27 -16 53 -24 57 -19 157 -112 255 -236 36 -47 86 -107 109 -134 80 -92 323 -327 358 -345 19 -11 58 -40 85 -65 28 -26 64 -54 80 -63 17 -9 55 -37 85 -63 30 -26 66 -51 80 -55 13 -4 61 -31 106 -60 45 -29 90 -56 102 -59 30 -10 45 -33 38 -59 -5 -20 -16 -26 -63 -36 -107 -21 -171 -15 -248 25 -116 59 -158 83 -202 114 -23 17 -44 30 -48 30 -4 0 -19 9 -34 19 -15 11 -40 23 -57 27 -16 4 -49 21 -74 39 -67 48 -124 75 -177 82 -31 4 -55 14 -69 30 -28 30 -182 78 -280 88 -38 4 -94 13 -124 20 -224 54 -435 58 -630 11 -58 -14 -128 -26 -157 -26 -59 0 -248 -58 -292 -89 -16 -11 -49 -25 -75 -31 -26 -6 -59 -19 -74 -28 -94 -64 -140 -92 -148 -92 -12 0 -109 -65 -156 -104 -187 -157 -176 -147 -397 -375 -30 -31 -61 -67 -70 -81 -8 -14 -37 -50 -63 -80 -25 -30 -56 -75 -67 -100 -12 -25 -41 -70 -66 -100 -24 -30 -47 -69 -51 -87 -3 -18 -13 -38 -21 -44 -8 -7 -24 -31 -35 -53 -11 -23 -27 -49 -35 -58 -17 -19 -52 -139 -53 -179 0 -36 26 -56 85 -65 28 -4 59 -13 71 -21 38 -25 228 -84 304 -94 41 -6 93 -19 115 -29 22 -10 87 -25 145 -34 58 -8 139 -23 180 -33 65 -16 121 -18 425 -18 l350 0 115 28 c63 16 140 38 170 49 30 11 78 26 105 33 28 7 64 20 80 28 17 9 89 44 160 78 75 35 148 78 172 100 24 22 48 39 55 39 7 0 51 27 97 60 46 33 89 60 95 60 7 0 32 21 56 46 25 25 59 53 75 61 17 9 71 52 121 97 50 44 126 110 169 146 111 91 283 264 285 286 5 45 0 51 -52 62 -80 16 -257 15 -371 -2 -56 -9 -163 -20 -237 -25 -104 -7 -152 -16 -210 -36 -75 -27 -292 -56 -307 -41 -28 28 91 74 197 76 31 0 73 9 97 20 33 15 77 20 210 26 98 4 178 12 193 19 45 22 199 29 597 28 357 -2 399 -4 478 -22 48 -12 119 -24 158 -28 40 -3 92 -15 117 -26 93 -40 232 -87 258 -87 15 0 71 -15 124 -34 54 -19 116 -37 140 -41 23 -4 65 -15 94 -25 29 -10 99 -22 156 -25 56 -4 114 -12 128 -17 44 -16 121 -28 280 -43 85 -8 178 -22 205 -30 38 -12 142 -18 445 -26 217 -5 421 -7 454 -3 89 10 266 -5 273 -23 7 -18 -26 -53 -112 -118 -38 -28 -78 -61 -89 -73 -10 -11 -30 -24 -46 -27 -15 -3 -54 -27 -86 -53 -32 -26 -90 -63 -128 -82 -38 -19 -78 -47 -89 -62 -11 -15 -34 -30 -51 -33 -36 -8 -140 -59 -175 -87 -14 -10 -65 -38 -115 -62 -50 -24 -100 -53 -110 -65 -11 -12 -42 -28 -69 -36 -27 -8 -84 -33 -125 -56 -41 -23 -98 -49 -126 -59 -95 -35 -177 -71 -213 -96 -20 -13 -50 -24 -67 -24 -17 -1 -49 -8 -71 -16 -22 -8 -62 -22 -90 -31 -27 -8 -62 -26 -77 -38 -15 -13 -47 -26 -70 -29 -59 -9 -199 -52 -283 -88 -38 -16 -110 -36 -158 -44 -49 -8 -101 -20 -115 -28 -15 -7 -65 -18 -111 -25 -46 -7 -105 -21 -131 -31 -25 -10 -84 -25 -131 -34 -46 -8 -115 -21 -154 -29 -38 -8 -104 -20 -145 -27 -41 -7 -106 -21 -145 -31 -38 -11 -128 -24 -200 -30 -71 -6 -159 -15 -195 -20 -147 -21 -236 -28 -460 -39 -129 -7 -244 -17 -254 -22 -37 -20 -219 -29 -736 -37 -283 -5 -516 -9 -517 -10 -2 0 -3 -7 -3 -15 0 -11 24 -15 102 -20 330 -18 1914 -23 2108 -6 69 6 186 20 260 30 74 11 164 20 200 20 36 0 94 7 130 15 36 8 132 27 214 40 83 14 156 31 163 36 6 6 61 17 120 24 59 7 133 23 163 34 30 11 87 27 125 35 39 8 86 21 105 29 19 8 60 18 90 21 30 4 89 23 131 42 42 19 83 34 90 34 8 0 30 9 50 19 20 11 58 22 85 26 49 7 82 19 229 80 44 19 132 55 195 80 63 26 122 52 130 60 8 7 31 16 50 20 19 3 78 30 131 60 52 29 110 56 127 60 18 3 62 27 99 52 36 25 93 56 126 69 33 13 83 41 111 63 28 21 78 52 112 69 33 17 82 48 110 69 27 21 90 65 139 97 50 33 121 85 159 115 39 31 78 61 87 66 9 6 43 34 76 62 32 29 72 63 89 75 71 52 275 250 479 465 112 117 128 136 163 182 19 25 49 62 67 81 18 19 36 45 39 57 4 11 26 43 51 70 57 63 195 270 195 293 0 10 7 23 16 31 8 7 22 26 31 43 9 17 29 46 44 64 16 18 29 39 29 47 0 14 23 66 57 130 41 77 56 108 108 217 30 65 59 135 64 155 6 21 20 56 31 78 11 21 20 46 20 54 0 8 14 35 30 61 18 28 37 77 46 120 8 40 21 85 29 101 8 15 15 41 15 56 1 15 6 51 13 80 9 41 21 59 52 86 22 18 48 37 58 40 10 4 17 14 15 24 -2 9 -7 15 -11 12 -5 -2 -15 8 -23 22 -10 21 -11 39 -3 85 5 33 14 102 19 156 6 67 17 116 36 160 l27 63 6 360 c3 198 3 506 0 685 -6 292 -9 333 -28 400 -12 41 -27 109 -32 150 -26 188 -47 280 -94 395 -37 91 -68 175 -83 222 -6 18 -22 48 -35 65 -14 18 -40 62 -58 98 -19 36 -55 93 -81 128 -63 82 -287 306 -330 328 -18 9 -47 29 -65 43 -65 52 -89 68 -113 76 -14 4 -35 14 -48 21 -67 43 -174 93 -211 99 -24 4 -69 19 -100 34 l-56 26 -335 2 c-218 1 -345 -2 -365 -9z m1774 -3402 c10 -11 7 -18 -11 -30 -21 -15 -24 -15 -35 0 -25 34 19 63 46 30z m-7502 -391 c3 -9 3 -18 0 -22 -11 -10 -57 7 -57 22 0 20 49 20 57 0z m217 -111 c26 -10 18 -24 -13 -24 -30 0 -46 12 -34 24 8 8 27 8 47 0z m172 -86 c7 -5 31 -14 55 -21 50 -15 61 -34 25 -43 -18 -4 -43 2 -79 19 -28 14 -62 29 -74 32 -13 4 -23 10 -23 15 0 19 72 17 96 -2z m245 -124 c9 -12 5 -14 -23 -14 -40 0 -52 8 -38 26 12 14 44 8 61 -12z m323 -1700 c47 -18 -15 -44 -104 -44 -62 0 -92 11 -76 27 16 16 150 29 180 17z m-287 -87 c-4 -14 -65 -30 -84 -23 -23 9 -9 30 23 36 36 7 66 1 61 -13z"/> <path d="M7995 6780 c-18 -20 -18 -31 4 -150 14 -74 40 -161 52 -176 9 -11 15 -12 26 -2 12 10 14 36 11 143 -4 113 -7 135 -27 168 -26 42 -40 46 -66 17z"/> <path d="M5922 6514 c-11 -7 -36 -29 -56 -48 -21 -19 -42 -38 -47 -43 -5 -4 -20 -24 -32 -43 -12 -19 -39 -46 -59 -60 -42 -29 -120 -124 -185 -225 -25 -38 -53 -81 -62 -95 -29 -42 -78 -134 -86 -159 -4 -14 -20 -42 -35 -63 -15 -21 -31 -55 -35 -75 -4 -21 -13 -50 -21 -65 -8 -16 -19 -47 -23 -71 -5 -23 -22 -71 -37 -107 -24 -59 -28 -83 -37 -251 -6 -122 -6 -236 0 -331 9 -127 14 -153 40 -214 17 -38 35 -87 41 -109 21 -80 54 -160 78 -188 13 -16 24 -34 24 -40 0 -7 7 -25 16 -42 9 -16 27 -50 39 -75 13 -26 31 -52 40 -60 9 -7 26 -32 37 -54 19 -39 271 -296 289 -296 5 0 33 -22 63 -49 30 -28 68 -58 83 -68 15 -9 46 -32 68 -49 22 -18 57 -39 79 -48 43 -18 126 -22 126 -6 0 17 40 11 47 -7 16 -49 59 -133 89 -175 18 -26 36 -60 40 -75 8 -33 47 -99 92 -154 17 -23 32 -47 32 -55 0 -8 6 -14 13 -14 20 0 41 -29 61 -82 9 -25 28 -53 41 -62 23 -15 76 -22 87 -11 14 14 -23 77 -70 121 -28 27 -52 54 -52 60 0 7 -7 19 -15 27 -8 8 -28 42 -45 76 -17 33 -35 61 -40 61 -4 0 -14 24 -20 53 -8 33 -25 66 -46 90 -19 20 -34 45 -34 56 0 10 -10 25 -22 33 -20 13 -22 23 -22 104 0 64 5 100 18 129 10 22 22 66 26 99 5 34 19 74 35 98 16 23 30 65 36 101 6 34 21 89 34 122 48 122 77 223 90 320 8 55 20 118 27 140 9 28 13 112 13 290 0 207 -3 259 -17 300 -9 28 -21 84 -27 125 -6 41 -22 103 -36 137 -14 35 -25 68 -25 76 0 7 -9 31 -20 52 -11 22 -25 57 -30 77 -6 20 -26 65 -45 98 -19 34 -35 66 -35 70 0 5 -11 29 -23 53 -13 24 -27 53 -31 63 -3 11 -24 46 -46 79 -22 33 -49 78 -60 100 -11 22 -41 67 -65 100 -25 33 -51 72 -58 86 -11 25 -34 55 -110 144 -31 37 -68 48 -95 29z m66 -1808 c2 -28 0 -37 -10 -34 -7 3 -14 22 -16 42 -2 28 0 37 10 34 7 -3 14 -22 16 -42z m56 -375 c1 -80 -7 -108 -24 -81 -11 17 -13 163 -3 174 16 16 27 -19 27 -93z m66 -278 c0 -13 -4 -23 -9 -23 -12 0 -32 60 -24 73 9 14 33 -22 33 -50z m46 -127 c3 -8 7 -30 8 -48 2 -18 4 -40 5 -49 0 -9 15 -33 31 -54 46 -58 37 -132 -10 -85 -11 11 -20 31 -20 44 0 13 -8 34 -19 47 -19 26 -35 116 -25 143 8 20 23 21 30 2z"/> <path d="M8106 6283 c-8 -8 -8 -113 0 -113 3 0 14 5 25 10 26 15 27 80 0 97 -10 7 -22 9 -25 6z"/> <path d="M10507 4840 c-3 -11 -1 -20 4 -20 4 0 13 9 19 20 8 16 8 20 -3 20 -8 0 -17 -9 -20 -20z"/> </g> <g class="bc-script" fill="var(--logo-ink, currentColor)" transform="translate(0.000000,872.000000) scale(0.100000,-0.100000)"> <path d="M8675 7158 c-144 -8 -169 -12 -264 -45 -58 -19 -117 -44 -131 -53 -28 -20 -151 -45 -175 -36 -12 4 -15 -3 -15 -35 0 -32 4 -42 20 -46 11 -3 20 -10 20 -15 0 -21 -32 -68 -46 -68 -28 0 -74 30 -74 49 0 10 -8 36 -17 57 l-17 39 -7 -53 c-4 -31 -15 -63 -27 -75 -11 -12 -23 -32 -26 -44 -4 -12 -19 -26 -34 -31 -23 -8 -30 -19 -39 -58 -6 -27 -9 -52 -6 -57 9 -15 103 -57 127 -57 13 0 27 -6 30 -12 6 -12 3 15 -11 105 -4 28 -1 42 12 57 26 28 42 25 62 -12 l17 -33 7 35 c4 19 17 42 30 50 12 8 38 32 58 52 24 25 49 39 76 44 22 3 54 15 71 25 17 11 40 19 51 19 10 0 50 16 89 35 38 19 81 35 95 35 25 0 143 17 279 40 74 13 185 5 215 -16 10 -8 34 -14 52 -14 17 0 43 -4 56 -9 36 -14 90 -105 98 -165 10 -77 -15 -205 -56 -283 -19 -35 -35 -71 -35 -79 0 -8 -21 -44 -48 -81 -26 -38 -56 -81 -66 -98 -23 -36 -30 -44 -81 -103 -23 -26 -54 -66 -70 -90 -16 -24 -41 -50 -56 -58 -15 -7 -40 -37 -56 -64 -17 -30 -37 -53 -50 -56 -13 -4 -40 -31 -61 -63 -36 -52 -42 -56 -78 -56 l-39 0 -2 75 c-2 71 -28 406 -39 496 -8 72 -79 109 -143 75 -33 -18 -36 -55 -17 -226 23 -205 23 -627 2 -1000 -8 -148 -18 -376 -22 -505 -4 -167 -10 -241 -19 -256 -10 -16 -31 -24 -88 -33 -47 -8 -86 -20 -106 -35 -24 -18 -50 -25 -118 -30 -48 -4 -99 -14 -114 -22 -16 -8 -61 -21 -101 -29 -52 -11 -79 -22 -93 -39 -15 -17 -34 -25 -75 -29 -52 -6 -183 -61 -220 -92 -8 -7 -44 -25 -80 -39 -42 -17 -78 -41 -101 -66 -20 -22 -41 -40 -47 -40 -16 0 -82 -73 -88 -97 -3 -12 -17 -29 -30 -38 -48 -31 -73 -207 -45 -313 7 -24 25 -54 41 -69 17 -14 30 -33 30 -40 0 -25 154 -154 200 -168 14 -4 34 -15 45 -25 40 -34 151 -87 198 -94 27 -4 63 -16 80 -26 18 -9 54 -20 81 -24 27 -3 81 -18 120 -33 l71 -28 305 0 c270 0 310 2 350 18 25 10 81 25 124 32 43 8 89 21 102 30 13 8 58 22 99 30 42 8 87 23 102 35 14 11 31 20 38 20 7 0 28 11 47 24 20 13 53 29 74 36 51 16 120 58 155 93 15 15 41 30 57 33 17 3 54 29 84 56 29 27 64 56 78 63 22 12 59 47 115 107 9 10 22 21 28 25 25 16 128 145 141 178 8 18 24 38 35 44 11 7 39 51 62 99 23 48 50 99 60 113 10 14 23 47 29 74 6 26 17 60 25 75 8 15 19 70 26 121 6 52 19 114 30 138 10 24 19 51 19 61 0 20 31 50 52 50 27 0 207 69 236 90 16 12 35 18 44 15 16 -6 38 -46 38 -70 0 -8 13 -27 29 -42 16 -15 38 -45 49 -66 l20 -38 16 23 c12 17 16 47 16 123 l0 101 43 41 c23 22 52 46 65 52 29 15 28 32 -4 71 -23 26 -26 38 -22 80 l5 48 -26 -16 c-14 -8 -35 -23 -46 -33 -11 -10 -36 -21 -55 -26 -27 -7 -40 -20 -61 -58 -17 -32 -38 -54 -56 -62 -16 -6 -35 -19 -42 -27 -8 -9 -23 -16 -35 -16 -24 0 -125 -34 -169 -57 -34 -17 -77 -5 -77 22 0 8 -12 33 -26 55 -19 28 -31 68 -43 144 -10 58 -23 111 -29 118 -5 7 -15 32 -21 55 -6 23 -23 51 -37 62 -14 11 -30 36 -35 56 -6 21 -33 61 -65 94 -30 32 -60 65 -67 73 -7 8 -31 20 -54 27 -24 6 -43 16 -43 21 0 5 -30 26 -67 47 -58 32 -83 39 -172 50 -63 8 -114 19 -130 30 -22 15 -58 17 -261 19 -129 1 -253 -2 -275 -7 -35 -7 -42 -6 -57 12 -25 30 -22 47 11 66 16 10 44 39 62 66 18 27 46 55 61 63 15 8 39 31 55 51 15 21 48 61 73 89 163 182 191 217 214 261 9 17 24 38 34 45 20 15 66 90 77 128 4 14 19 37 33 52 90 97 130 419 65 528 -8 14 -33 39 -56 55 -128 95 -115 89 -232 102 -124 14 -192 14 -420 1z m617 -1637 c24 -6 57 -17 74 -26 16 -8 42 -15 57 -15 34 0 97 -25 97 -39 0 -6 17 -19 38 -30 70 -36 200 -176 209 -226 3 -16 18 -50 34 -75 15 -25 31 -65 35 -90 3 -25 15 -76 25 -115 20 -73 24 -122 11 -141 -19 -30 -80 -46 -221 -59 -80 -8 -189 -25 -241 -39 -58 -15 -140 -27 -210 -31 -63 -3 -153 -15 -200 -25 -47 -11 -125 -24 -175 -30 -49 -6 -117 -22 -150 -36 -70 -28 -136 -31 -155 -9 -18 21 1 889 19 924 24 44 93 64 241 71 177 8 456 3 512 -9z m1238 -681 c-6 -11 -15 -20 -19 -20 -5 0 -7 9 -4 20 3 11 12 20 20 20 11 0 11 -4 3 -20z m-709 -230 c25 -14 52 -68 44 -88 -4 -10 -15 -61 -26 -116 -11 -58 -29 -116 -44 -141 -14 -24 -25 -51 -25 -60 0 -29 -61 -159 -91 -193 -16 -18 -29 -41 -29 -51 0 -10 -27 -47 -60 -82 -33 -35 -60 -67 -60 -71 0 -16 -78 -94 -150 -151 -41 -33 -79 -66 -83 -73 -4 -8 -26 -23 -47 -34 -22 -11 -62 -40 -90 -65 -28 -25 -58 -45 -68 -45 -9 0 -28 -7 -42 -15 -14 -8 -47 -25 -75 -39 -27 -13 -61 -33 -73 -44 -13 -12 -45 -24 -70 -27 -26 -3 -58 -12 -72 -20 -14 -7 -62 -22 -107 -34 -45 -11 -97 -28 -115 -37 -44 -23 -268 -36 -498 -28 -159 5 -180 8 -230 31 -30 14 -84 33 -120 43 -36 10 -83 25 -105 34 -22 8 -50 15 -62 16 -11 0 -40 16 -63 35 -23 19 -48 35 -56 35 -18 0 -128 90 -171 140 -17 20 -35 50 -39 66 -4 16 -15 40 -24 54 -32 47 -32 72 5 145 19 38 35 74 35 81 0 7 27 34 60 59 33 26 68 57 76 70 9 13 30 27 47 30 33 8 93 41 153 87 21 16 54 29 84 33 28 4 74 20 103 36 28 16 60 29 70 29 10 0 38 11 61 25 31 18 64 27 122 32 50 4 98 15 129 30 37 17 68 23 121 23 67 0 71 -2 92 -30 19 -25 29 -30 65 -30 50 0 67 13 67 52 0 37 30 65 77 73 21 4 72 15 113 26 41 11 118 25 170 30 53 6 115 20 140 31 32 15 82 23 175 30 72 5 168 18 215 28 47 11 144 27 215 36 72 9 146 22 165 29 45 16 67 17 91 5z"/> <path d="M19850 6911 c-57 -5 -92 -14 -145 -40 -38 -19 -77 -41 -86 -48 -10 -8 -41 -21 -70 -28 -29 -8 -57 -21 -61 -30 -5 -8 -23 -22 -41 -31 -18 -9 -43 -25 -57 -36 -14 -10 -49 -35 -78 -54 -48 -32 -58 -34 -100 -29 -26 4 -65 16 -86 27 -22 11 -77 26 -123 33 -50 8 -93 21 -108 33 -14 11 -46 23 -72 27 -26 4 -66 16 -88 28 -22 11 -81 26 -135 33 -52 7 -109 20 -127 29 -49 24 -202 38 -366 32 -135 -5 -151 -8 -192 -31 -24 -14 -55 -26 -69 -26 -41 0 -142 -94 -182 -168 -19 -34 -34 -72 -34 -83 0 -32 44 -69 82 -69 60 0 80 19 93 82 12 60 41 103 79 114 12 3 30 14 41 24 27 24 152 50 239 50 99 -1 260 -24 331 -48 33 -11 94 -23 135 -27 53 -5 85 -14 110 -30 19 -13 55 -29 80 -35 25 -7 61 -20 80 -30 19 -9 62 -21 94 -25 85 -10 101 -18 113 -58 12 -40 7 -51 -25 -61 -12 -4 -29 -19 -36 -34 -8 -15 -27 -39 -43 -54 -15 -15 -39 -39 -53 -52 -14 -13 -34 -37 -45 -52 -11 -15 -34 -41 -51 -58 -17 -17 -39 -44 -48 -61 -15 -27 -37 -58 -133 -185 -18 -24 -33 -51 -33 -61 0 -10 -13 -28 -29 -41 -15 -13 -47 -62 -70 -109 -23 -48 -48 -93 -57 -100 -19 -15 -59 -94 -84 -165 -10 -28 -29 -63 -44 -79 -14 -15 -26 -33 -26 -39 0 -7 -9 -30 -20 -51 -11 -22 -23 -57 -27 -78 -3 -21 -18 -57 -34 -80 -16 -23 -31 -62 -35 -87 -4 -25 -14 -61 -24 -80 -9 -19 -22 -78 -28 -131 -7 -62 -18 -112 -32 -139 -30 -59 -43 -209 -38 -450 3 -189 4 -197 29 -240 15 -25 32 -70 39 -100 12 -56 70 -157 95 -166 7 -3 19 -19 25 -35 7 -16 16 -29 21 -29 4 0 40 -27 79 -59 57 -48 80 -61 118 -66 26 -4 66 -16 89 -27 98 -46 381 -50 518 -7 38 12 108 27 154 35 51 8 100 23 126 39 24 14 49 25 55 25 7 0 25 11 41 24 15 13 46 27 69 31 22 4 42 11 46 16 3 5 27 21 54 34 27 14 54 33 59 44 6 10 22 22 36 25 13 3 52 30 85 60 33 30 72 57 88 61 15 3 47 28 72 54 25 26 59 55 77 65 18 9 37 25 43 35 5 11 32 35 59 55 37 28 264 240 313 294 4 4 34 36 67 71 34 35 61 66 61 70 0 3 28 36 63 73 34 36 72 79 83 94 20 27 28 29 104 32 53 3 86 0 93 -7 8 -8 12 -63 12 -166 0 -124 3 -157 15 -169 23 -23 157 -48 194 -37 17 5 53 12 79 15 57 7 129 46 157 86 11 16 34 31 50 35 31 7 96 67 106 97 9 29 59 23 82 -9 11 -16 46 -41 78 -57 l57 -29 55 19 c67 22 186 121 211 174 13 30 22 35 53 38 33 3 43 -2 91 -51 46 -46 62 -55 102 -60 113 -16 247 -1 294 33 39 27 43 26 66 -19 11 -21 34 -59 50 -84 27 -41 38 -48 97 -66 78 -25 107 -26 152 -7 18 7 52 17 74 21 35 6 50 17 99 74 32 37 67 80 78 94 22 30 26 31 218 21 103 -5 111 -4 158 21 41 21 70 27 148 32 78 5 100 3 107 -8 4 -8 8 -82 9 -165 0 -109 4 -155 13 -167 28 -34 144 -47 256 -28 73 12 172 63 182 93 3 9 24 24 48 33 29 11 55 32 77 62 19 25 46 51 61 59 58 30 113 162 92 218 -15 40 -105 0 -129 -56 -6 -17 -29 -40 -51 -52 -21 -12 -48 -38 -60 -59 -13 -23 -37 -46 -61 -58 -40 -20 -103 -74 -103 -90 0 -24 -130 -34 -144 -10 -8 13 24 280 39 323 14 43 11 123 -7 134 -21 13 -118 6 -143 -10 -15 -10 -36 -16 -48 -14 -21 3 -22 7 -19 73 3 57 0 75 -15 93 -26 32 -72 32 -115 -1 -32 -25 -36 -35 -52 -114 -23 -116 -27 -124 -74 -157 -31 -21 -60 -30 -122 -38 -73 -9 -85 -8 -124 12 -75 36 -96 62 -96 119 0 57 -9 85 -43 125 -44 54 -200 55 -242 2 -22 -27 -68 -36 -81 -15 -11 19 -86 1 -118 -29 -24 -23 -69 -83 -86 -117 -27 -52 -55 -84 -78 -90 -14 -3 -44 -20 -66 -36 -32 -23 -50 -29 -92 -29 -52 0 -51 0 -125 67 -36 33 -68 78 -81 113 -28 82 -186 61 -234 -32 -9 -17 -29 -42 -44 -54 -15 -13 -31 -35 -34 -49 -16 -62 -129 -139 -152 -104 -5 8 -11 75 -14 149 l-5 135 -50 3 c-48 3 -51 1 -88 -43 -29 -34 -40 -58 -47 -103 -9 -52 -14 -62 -70 -114 -33 -31 -60 -62 -60 -68 0 -6 -16 -18 -36 -26 -20 -9 -58 -37 -84 -64 -38 -39 -56 -50 -91 -55 -31 -4 -50 -2 -63 8 -18 13 -18 20 -7 158 7 79 19 158 27 174 14 30 14 101 0 124 -11 17 -122 14 -151 -5 -13 -8 -34 -14 -47 -12 -22 3 -23 6 -19 71 4 82 -13 117 -59 117 -39 0 -99 -37 -104 -64 -27 -142 -43 -193 -77 -236 -19 -25 -40 -54 -46 -64 -6 -11 -24 -24 -41 -30 -17 -6 -46 -31 -64 -56 -19 -25 -46 -51 -61 -58 -14 -7 -53 -39 -86 -70 -33 -31 -77 -70 -97 -86 -20 -17 -41 -40 -46 -52 -6 -12 -22 -27 -36 -33 -14 -7 -48 -34 -76 -61 -102 -99 -241 -222 -262 -232 -12 -6 -26 -20 -32 -33 -6 -12 -35 -37 -66 -54 -30 -18 -66 -45 -80 -61 -14 -17 -36 -34 -49 -39 -39 -15 -138 -81 -143 -96 -3 -8 -22 -19 -42 -25 -53 -16 -162 -71 -194 -96 -16 -13 -49 -25 -80 -29 -29 -4 -72 -15 -95 -25 -110 -48 -416 -48 -508 -1 -22 11 -53 23 -68 26 -16 3 -32 16 -38 29 -6 12 -35 42 -65 66 -30 24 -54 51 -54 61 0 10 -13 32 -30 49 -16 17 -33 43 -36 58 -4 15 -15 44 -26 65 -31 61 -43 280 -29 525 9 162 15 213 31 250 11 26 26 75 34 109 8 35 23 77 34 95 11 18 23 57 27 85 4 29 15 63 25 76 10 13 22 37 26 53 3 16 17 40 30 54 12 14 28 47 34 73 10 48 76 174 105 203 8 9 15 25 15 38 0 12 11 37 25 56 14 19 25 38 25 43 0 5 15 26 33 47 22 23 36 52 40 78 5 28 13 43 26 47 19 6 72 77 104 141 9 18 37 52 62 77 25 26 50 60 56 76 6 16 31 46 55 66 24 20 53 54 64 75 11 21 28 41 37 44 25 8 80 62 88 85 11 36 51 39 396 34 203 -3 356 -1 389 5 75 14 171 56 195 86 11 13 33 28 48 32 18 4 33 17 39 33 6 14 19 43 30 64 49 94 -45 241 -166 258 -59 9 -226 8 -336 0z m293 -122 c38 -10 57 -37 57 -80 0 -11 -28 -48 -63 -84 -59 -60 -66 -63 -122 -70 -33 -4 -76 -14 -95 -22 -51 -21 -137 -26 -210 -13 -36 6 -96 16 -135 21 -99 15 -107 26 -53 77 24 23 59 47 78 53 19 7 56 25 81 41 25 15 50 28 54 28 4 0 21 10 38 22 57 41 266 56 370 27z m2832 -1799 c14 -5 28 -18 31 -27 3 -10 15 -39 26 -65 22 -50 22 -56 -13 -158 -28 -84 -57 -115 -108 -115 -67 0 -73 12 -69 146 2 90 7 121 19 135 9 11 20 30 24 44 15 50 37 60 90 40z"/> <path d="M8034 6451 c8 -42 28 -83 43 -88 14 -5 27 49 18 77 -5 16 -10 18 -20 10 -10 -8 -17 -5 -30 12 l-17 23 6 -34z"/> <path d="M13194 6440 c-28 -25 -33 -39 -43 -112 -7 -46 -15 -156 -19 -245 -5 -94 -12 -167 -19 -174 -6 -6 -75 -14 -161 -18 -173 -8 -191 -15 -166 -63 23 -45 67 -58 192 -58 71 0 114 -4 124 -12 14 -11 16 -70 21 -465 6 -481 8 -463 -43 -478 -14 -4 -41 -18 -60 -31 -47 -32 -112 -33 -144 -1 -12 12 -41 37 -64 55 -27 22 -45 46 -52 70 -13 49 -61 82 -119 82 -57 0 -110 -32 -118 -71 -3 -17 -16 -35 -29 -42 -26 -14 -84 -84 -84 -102 0 -19 -77 -85 -98 -85 -32 0 -45 47 -47 168 -1 126 -4 132 -66 132 -43 0 -84 -29 -94 -67 -3 -15 -23 -43 -43 -63 -33 -33 -44 -38 -100 -43 -64 -5 -117 8 -152 38 -22 19 -82 27 -142 19 -47 -6 -59 -13 -106 -61 -31 -31 -65 -56 -82 -59 -16 -4 -31 -12 -34 -20 -7 -19 -36 -18 -36 1 0 9 7 18 15 21 8 4 18 24 21 46 7 41 26 68 49 68 11 0 48 37 96 97 10 12 35 23 62 27 56 9 73 26 56 58 -22 42 -42 58 -74 58 -42 0 -140 -44 -186 -84 -20 -17 -50 -39 -68 -48 -21 -12 -38 -32 -48 -58 -12 -29 -24 -42 -42 -47 -14 -3 -35 -14 -46 -23 -11 -10 -30 -21 -43 -25 -13 -4 -38 -19 -55 -34 -25 -22 -49 -31 -110 -40 -43 -6 -83 -9 -88 -5 -13 8 -10 -17 6 -46 7 -14 17 -23 22 -20 4 3 9 -3 11 -13 2 -10 -4 -20 -15 -24 -28 -10 -103 -76 -103 -90 0 -15 49 4 118 47 26 16 72 33 102 39 30 5 65 12 77 16 19 6 22 3 28 -32 3 -21 9 -51 13 -68 l8 -30 101 -3 c98 -3 102 -2 152 29 28 17 53 40 56 49 3 10 20 24 38 31 18 7 54 31 81 52 37 29 57 37 75 34 15 -3 53 -10 86 -17 63 -13 185 -7 233 11 23 9 29 7 42 -12 8 -12 29 -36 46 -54 17 -17 36 -41 43 -53 17 -31 83 -62 133 -62 30 0 57 9 95 32 29 18 53 35 53 39 0 4 16 17 35 29 22 14 38 33 43 53 8 31 40 60 78 71 17 5 35 -7 84 -56 l62 -63 137 1 c120 1 141 4 178 23 23 12 47 29 54 37 29 35 89 -7 129 -89 37 -75 135 -148 224 -166 90 -18 190 -1 226 39 14 15 36 31 50 35 42 13 82 46 96 81 8 19 27 40 43 48 16 9 31 22 34 31 8 19 31 20 46 1 6 -8 31 -17 55 -20 56 -9 173 27 182 56 7 24 48 40 80 32 22 -6 24 -11 24 -58 0 -29 -3 -56 -7 -60 -4 -4 -8 -22 -9 -39 -3 -53 -35 -150 -60 -184 -13 -17 -24 -37 -24 -43 0 -7 -27 -40 -60 -74 -37 -39 -60 -71 -60 -85 0 -13 -13 -35 -29 -50 -15 -14 -35 -40 -44 -57 -9 -17 -23 -36 -31 -43 -9 -8 -21 -32 -27 -55 -6 -22 -21 -52 -33 -66 -41 -45 -66 -88 -81 -135 -7 -26 -20 -54 -28 -63 -32 -36 -88 -154 -94 -198 -3 -25 -16 -61 -29 -79 -13 -19 -27 -58 -33 -87 -5 -29 -17 -73 -25 -97 -9 -24 -16 -58 -16 -76 0 -54 38 -138 85 -188 l43 -47 118 0 117 0 54 57 c29 32 64 69 77 83 13 14 30 39 39 56 9 17 22 36 31 43 8 7 17 31 21 54 4 23 17 58 30 77 13 19 27 49 31 65 4 17 17 55 29 85 13 31 26 90 30 135 4 46 18 105 32 140 13 34 30 108 38 170 8 61 22 137 30 170 8 33 15 101 15 150 1 114 11 156 46 195 42 45 186 185 279 270 110 101 130 141 80 160 -47 18 -105 -4 -156 -58 -26 -27 -62 -55 -81 -61 -21 -7 -40 -22 -46 -36 -14 -31 -23 -31 -49 -2 -19 21 -19 30 -13 152 7 142 2 174 -38 218 -21 22 -34 27 -73 27 -42 0 -48 -3 -72 -37 -14 -21 -41 -55 -60 -75 -20 -20 -41 -54 -46 -76 -7 -23 -20 -44 -33 -51 -13 -6 -39 -23 -58 -37 -41 -30 -72 -28 -81 6 -4 14 -7 78 -8 142 -1 78 -5 119 -13 124 -6 4 -32 7 -56 7 -39 0 -50 -5 -79 -36 -32 -35 -33 -40 -33 -119 0 -141 -9 -188 -39 -206 -14 -8 -40 -36 -57 -61 -43 -65 -121 -109 -197 -112 -51 -2 -61 1 -88 27 -54 51 -99 127 -105 180 -3 27 -15 75 -25 107 -25 75 -39 248 -38 467 2 259 11 376 31 396 14 14 50 17 260 21 268 5 288 9 288 62 0 18 -7 32 -17 37 -10 5 -127 11 -259 14 -309 6 -290 -6 -278 175 5 72 9 182 9 245 l0 114 -40 23 c-52 30 -64 29 -101 -7z m1008 -2510 c-2 -117 -5 -140 -26 -184 -13 -28 -30 -80 -36 -116 -7 -36 -19 -72 -27 -82 -8 -9 -20 -55 -27 -102 -9 -60 -19 -93 -33 -109 -12 -12 -30 -40 -40 -62 -11 -22 -28 -53 -37 -70 -9 -16 -16 -35 -16 -40 0 -21 -78 -88 -94 -82 -28 11 -24 172 5 229 10 21 27 73 38 116 11 43 27 94 35 113 8 19 17 60 21 92 5 36 16 69 29 85 29 36 82 148 93 197 11 45 90 158 107 152 7 -3 10 -48 8 -137z"/> <path d="M8100 6309 c0 -16 4 -28 9 -24 5 3 12 1 16 -5 11 -18 23 -10 18 13 -13 51 -43 63 -43 16z"/> <path d="M7890 6315 c-7 -8 -19 -15 -27 -15 -11 0 -11 -4 -3 -20 21 -40 60 -20 60 31 0 23 -13 25 -30 4z"/> <path d="M16215 6248 c-16 -6 -39 -18 -50 -28 -11 -9 -37 -27 -59 -40 -23 -14 -44 -37 -53 -59 -8 -20 -20 -43 -27 -51 -7 -8 -18 -54 -24 -102 -7 -47 -19 -105 -27 -129 -21 -58 -21 -303 0 -342 20 -39 31 -206 16 -235 -6 -12 -18 -22 -25 -22 -18 0 -86 -76 -86 -95 0 -9 -12 -20 -27 -26 -30 -11 -64 -46 -89 -92 -8 -15 -25 -32 -37 -36 -13 -6 -37 -38 -60 -84 -22 -42 -47 -83 -58 -93 -10 -9 -33 -45 -50 -78 -29 -56 -32 -71 -36 -181 -8 -199 20 -251 153 -287 83 -22 164 -26 199 -9 11 5 41 12 66 16 37 5 56 15 106 63 202 189 217 201 254 202 33 0 42 -6 94 -70 31 -38 64 -70 72 -70 8 0 30 -16 50 -35 20 -19 40 -35 44 -35 4 0 20 -11 36 -24 18 -15 47 -26 84 -30 31 -4 78 -14 104 -22 61 -18 162 -18 195 1 14 8 41 14 60 15 56 0 140 48 158 90 8 19 25 48 38 63 13 16 24 34 24 41 0 6 13 38 30 71 29 60 29 61 30 236 0 162 -2 183 -25 254 -31 93 -45 120 -84 163 -21 22 -39 32 -60 32 -60 0 -79 -59 -42 -135 11 -22 25 -60 31 -85 6 -25 20 -72 30 -105 38 -114 20 -252 -50 -400 -16 -33 -31 -68 -34 -77 -3 -10 -18 -21 -33 -24 -15 -4 -41 -17 -56 -28 -38 -28 -152 -26 -208 3 -20 11 -54 23 -75 27 -25 5 -50 20 -73 45 -45 47 -52 54 -107 107 -24 24 -44 50 -44 57 0 7 -11 22 -24 32 -36 26 -38 84 -6 116 14 14 39 43 55 66 17 22 38 43 47 46 10 4 39 33 64 65 26 33 54 62 63 65 10 3 32 26 49 50 18 25 48 55 67 66 19 12 38 31 41 44 7 28 51 70 82 80 12 3 31 23 41 43 10 20 28 46 40 56 26 24 27 48 1 71 -23 21 -80 14 -101 -12 -8 -8 -31 -27 -52 -40 -21 -13 -62 -48 -91 -77 -29 -29 -71 -66 -94 -81 -23 -15 -44 -36 -47 -46 -4 -11 -24 -31 -45 -44 -21 -13 -51 -41 -67 -62 -15 -20 -56 -66 -91 -101 -75 -74 -100 -79 -119 -20 -7 21 -21 46 -32 57 -12 12 -21 40 -26 82 -4 35 -14 84 -21 109 -18 59 -17 85 2 101 9 7 20 23 25 36 5 13 31 36 58 53 28 17 54 43 61 59 7 18 29 38 55 52 30 16 49 36 64 66 11 24 25 43 30 43 18 0 80 66 86 93 4 15 16 33 26 40 10 7 34 41 53 76 35 61 36 66 36 167 l0 105 -57 63 c-40 45 -70 68 -96 76 -20 6 -54 22 -74 35 -33 23 -45 25 -142 24 -58 0 -119 -5 -136 -11z m204 -119 c40 -12 77 -44 102 -90 8 -15 13 -55 12 -102 0 -65 -4 -82 -21 -100 -12 -12 -24 -41 -28 -64 -5 -33 -14 -46 -42 -65 -20 -12 -46 -39 -59 -58 -24 -39 -32 -47 -86 -92 -22 -17 -43 -42 -48 -55 -7 -18 -16 -23 -46 -23 -67 0 -68 2 -72 178 l-3 158 37 110 c21 60 43 116 50 124 7 8 20 30 29 48 12 24 23 32 44 33 15 0 36 4 47 9 11 5 25 7 31 5 7 -2 30 -9 53 -16z m-367 -1076 c7 -16 25 -43 40 -61 16 -18 28 -45 28 -60 0 -15 12 -52 26 -82 31 -66 41 -138 24 -170 -6 -12 -33 -45 -58 -73 -42 -45 -72 -75 -177 -176 -29 -28 -114 -71 -140 -71 -7 0 -32 12 -55 28 l-42 27 4 112 c4 99 7 116 30 150 14 21 29 54 32 73 6 35 13 43 78 110 19 20 40 52 47 71 7 23 25 45 49 60 20 13 46 38 57 56 25 40 42 41 57 6z"/> <path d="M10727 4886 c-3 -8 0 -21 6 -30 11 -15 14 -15 35 0 18 12 21 19 11 30 -15 18 -45 18 -52 0z"/> <path d="M4088 4127 c12 -12 36 -28 54 -35 l33 -12 -33 31 c-18 16 -42 32 -54 34 l-21 4 21 -22z"/> <path d="M6704 2943 l-31 -4 29 -30 c22 -21 34 -27 46 -20 9 5 26 5 39 0 23 -9 23 -8 -4 26 -15 19 -32 34 -38 33 -5 0 -24 -3 -41 -5z"/> </g> </svg>